<svg xmlns="http://www.w3.org/2000/svg" viewBox="0 0 225.35 246.31"><defs><style>.cls-1{fill:#808183;}.cls-2{fill:#006;}.cls-3{fill:#063;}.cls-10,.cls-11,.cls-12,.cls-13,.cls-14,.cls-15,.cls-16,.cls-17,.cls-18,.cls-19,.cls-20,.cls-22,.cls-23,.cls-24,.cls-3,.cls-4,.cls-5,.cls-6,.cls-7,.cls-8,.cls-9{fill-rule:evenodd;}.cls-4{fill:#699;}.cls-5{fill:#c30;}.cls-6{fill:#9c6;}.cls-7{fill:#246e70;}.cls-21,.cls-8{fill:#f60;}.cls-9{fill:#9f0;}.cls-10{fill:#f63;}.cls-11{fill:#039;}.cls-12{fill:#30c;}.cls-13{fill:#90c;}.cls-14{fill:#66f;}.cls-15{fill:#cc3;}.cls-16{fill:#c74f1c;}.cls-17{fill:#900;}.cls-18{fill:#b80a45;}.cls-19{fill:#606;}.cls-20{fill:#4f1c2e;}.cls-22{fill:#693;}.cls-23{fill:#033;}.cls-24{fill:#8b278b;}</style></defs><title>Ресурс 1</title><g id="Слой_2" data-name="Слой 2"><g id="Слой_1-2" data-name="Слой 1"><path class="cls-1" d="M7,243.6h.68v2.71H6.33V245H1.58v1.35H.23V243.6H.9v-3.49a1.8,1.8,0,0,1,2-2H5a1.8,1.8,0,0,1,2,2v3.49Zm-1.36,0v-3.49a.6.6,0,0,0-.67-.68h-2a.6.6,0,0,0-.68.68v3.49Zm16.29-5.41H18.55c-1,0-1.64.68-2,2q-.11.67-1.36,4.74h1.38l1.34-4.74c.12-.45.35-.68.68-.68h2V245h1.36v-6.77Zm7.46,2v.68a1.8,1.8,0,0,0,2,2l-2,2h1.93l2-2h1.47v2h1.36v-6.77H31.44a1.8,1.8,0,0,0-2,2Zm1.36,0a.6.6,0,0,1,.68-.68h3.39v2H31.44a.6.6,0,0,1-.68-.67v-.68Zm35.08,1.34a1.81,1.81,0,0,0,.43-1.35,1.79,1.79,0,0,0-2-2H59.49V245h4.75a1.79,1.79,0,0,0,2-2,1.89,1.89,0,0,0-.43-1.37Zm-1.6-.66H60.85v-1.36h3.39a.68.68,0,0,1,0,1.36Zm0,2.7H60.85v-1.35h3.39a.6.6,0,0,1,.68.68.6.6,0,0,1-.68.67ZM80.52,245H75.77a1.8,1.8,0,0,1-2-2v-2.71a1.8,1.8,0,0,1,2-2h4.75v1.35H75.77a.6.6,0,0,0-.67.68v2.71a.59.59,0,0,0,.67.67h4.75V245Zm14.25-5.42H89.35v1.36h4.07v1.35H89.35v1.35h5.42V245H88v-6.77h6.78v1.35Zm7.47,5.42,2.54-3.39-2.54-3.38h1.7l1.69,2.26,1.7-2.26H109l-2.55,3.38L109,245h-1.7l-1.7-2.26L103.94,245Zm36.53,0h-1.36v-2.71h-4.07V245H132v-6.77h1.36v2.71h4.07v-2.71h1.36V245ZM153,245h-1.36V243.6h-4.07V245h-1.36v-4.85a1.8,1.8,0,0,1,2-2H151a1.8,1.8,0,0,1,2,2V245Zm-1.36-2.71v-2.14a.6.6,0,0,0-.68-.68h-2.71a.6.6,0,0,0-.68.68v2.14Zm15.61-2v.68a1.8,1.8,0,0,1-2,2h-3.4v2h-1.35v-6.77h4.75a1.8,1.8,0,0,1,2,2Zm-1.36,0a.6.6,0,0,0-.67-.68h-3.4v2h3.4a.59.59,0,0,0,.67-.67v-.68ZM181.52,243a1.8,1.8,0,0,1-2,2h-2.72a1.79,1.79,0,0,1-2-2v-2.93a1.79,1.79,0,0,1,2-2h2.72a1.8,1.8,0,0,1,2,2V243Zm-1.36,0v-2.93a.6.6,0,0,0-.67-.68h-2.72a.6.6,0,0,0-.68.68V243a.6.6,0,0,0,.68.68h2.72a.6.6,0,0,0,.67-.68Zm15.61.56h.68v2.71h-1.36V245h-4.75v1.35H189V243.6h.67v-3.49a1.8,1.8,0,0,1,2-2h2a1.8,1.8,0,0,1,2,2v3.49Zm-1.36,0v-3.49a.6.6,0,0,0-.67-.68h-2a.6.6,0,0,0-.68.68v3.49ZM210.7,243a1.8,1.8,0,0,1-2,2H206a1.8,1.8,0,0,1-2-2v-2.93a1.8,1.8,0,0,1,2-2h2.71a1.8,1.8,0,0,1,2,2V243Zm-1.36,0v-2.93a.6.6,0,0,0-.68-.68H206a.6.6,0,0,0-.68.68V243a.6.6,0,0,0,.68.68h2.71a.6.6,0,0,0,.68-.68Zm15.18-1.48a2.1,2.1,0,0,0-1.6-3.37h-4.75V245h4.75a1.8,1.8,0,0,0,2-2,1.89,1.89,0,0,0-.43-1.37Zm-1.6-.66h-3.4v-1.36h3.4a.68.68,0,0,1,0,1.36Zm0,2.7h-3.4v-1.35h3.4a.6.6,0,0,1,.67.68.59.59,0,0,1-.67.67Z"/><path class="cls-2" d="M23.89,225.24H7.17Q0,225.24,0,218.07v-9.55q0-7.17,7.17-7.17H23.89v4.78H7.17a2.11,2.11,0,0,0-2.39,2.39v9.55a2.11,2.11,0,0,0,2.39,2.39H23.89v4.78Zm15.53,0V212.1H35q-1.78,0-2.19,2.19l-2.19,11H26.4l2.07-11q.87-6.57,6.57-6.57H43.8v17.52Zm24.29-6.17q0,6.57-6.57,6.57H52.76q-6.57,0-6.57-6.57v-5.18q0-6.57,6.57-6.57h4.38q6.57,0,6.57,6.57v5.18Zm-4.38,0v-5.18a1.94,1.94,0,0,0-2.19-2.19H52.76a1.94,1.94,0,0,0-2.19,2.19v5.18a1.94,1.94,0,0,0,2.19,2.19h4.38a1.94,1.94,0,0,0,2.19-2.19Zm22.78-2.63a4.38,4.38,0,0,0,1.51-3.18q0-5.53-5.49-5.54h-12v17.52h12q5.49,0,5.49-5.37a4.82,4.82,0,0,0-1.51-3.43Zm-4-2.15H70.48V212.1h7.65q1.11,0,1.11,1.2,0,1-1.11,1Zm0,6.57H70.48v-2.19h7.65q1.11,0,1.11,1.2,0,1-1.11,1Zm25.4-1.79q0,6.57-6.57,6.57H92.58q-6.57,0-6.57-6.57v-5.18q0-6.57,6.57-6.57H97q6.57,0,6.57,6.57v5.18Zm-4.38,0v-5.18A1.94,1.94,0,0,0,97,211.7H92.58a1.94,1.94,0,0,0-2.19,2.19v5.18a1.94,1.94,0,0,0,2.19,2.19H97a1.94,1.94,0,0,0,2.19-2.19Z"/><path class="cls-3" d="M154.62,142.14c3.39-11,23.29-21.29,37.83-23.72-2.84,6.46-9.33,14.43-13.5,18.09-5.43,4.77-13.64,8.1-24.33,5.63Z"/><path class="cls-4" d="M88.07,146.4c-15.23,2.76-25.68-4.41-35.63-12,16.22-2.48,31.72-1.63,35.63,12Z"/><path class="cls-5" d="M121.05,113.6c-11.62-10.92-.88-40.35,6.7-49.81,3.13,18,8.66,37.84-6.7,49.81Z"/><path class="cls-6" d="M151.83,117.67C153.84,99,169.66,91.3,186.1,80c-.14,11.2-6,28.6-19.37,34.9-2.91,1.37-10.27,4.13-14.9,2.75Z"/><path class="cls-7" d="M87,125.44c-.27.06-.5,0-.8.15a1.48,1.48,0,0,1-.8.13,15.3,15.3,0,0,1-2.26,0,24.48,24.48,0,0,1-4.31-.66C56.64,120,54.53,100.31,49.24,84.57c15.95,7.56,31.35,20.12,36.56,34.88,1,2.84,1.54,3.22,1.2,6Z"/><path class="cls-8" d="M131.54,130c-2.39-6.2,4.79-21.13,14.49-27,1.15,6.37,1.35,24.66-14.49,27Z"/><path class="cls-9" d="M191.59,106.32c-3-8.79.88-15.31,7.28-20.52a86,86,0,0,1,25-13.38c-2.17,9.75-16.21,30.76-32.32,33.9Z"/><path class="cls-10" d="M139.62,63.94c-7.1-7-5-19.33-.25-28,4.51-8.15,11.43-14.79,19.14-20.25-.12,13.89-2.16,28.15-10.16,39.6-2.65,3.79-5.09,7.15-8.73,8.63Z"/><path class="cls-11" d="M81.54,89.18c-7.68-1.3-13.74-4.31-17.3-10-5.19-8.36-5.36-20-7-29.55,10.52,5.95,27.39,26.64,24.27,39.58Z"/><path class="cls-12" d="M37.2,94.82c-17.53,3.9-23.59-19.4-27.5-30.28,7.32,3.9,14.12,8.55,19.4,14.19,4.44,4.75,8.48,11.91,8.1,16.09Z"/><path class="cls-13" d="M109.78,82.79c-23.39-7.67-12.63-33.56-9.66-48.51,9.41,6.39,19.18,38.56,9.66,48.51Z"/><path class="cls-14" d="M49.49,69.84C32.55,62.43,31,54.19,23.16,38.71,38.4,42.62,53.5,53.88,49.49,69.84Z"/><path class="cls-15" d="M172.87,74.31c5.28-16.21,17.43-20,32.2-27.81-4.28,14.71-13.28,29.77-32.2,27.81Z"/><path class="cls-16" d="M122.75,46.16c-7.41-4.6-11.22-11.26-9.47-21.43,1.54-8.88,6.25-18.8,13-24.73,7.7,10.31,7.81,35.45-3.55,46.16Z"/><path class="cls-17" d="M88.66,58.23C68.58,51.91,64.22,35,67.29,14.74c7.41,5.15,10.94,11.85,15.17,18.34,4.6,7.07,7.29,14.38,6.2,25.15Z"/><path class="cls-18" d="M164.16,53.13c-7.56-15.83,15-28.09,24-30.8-4.6,15.26-11.71,26.19-24,30.8Z"/><path class="cls-19" d="M109.61,126.24c-12.14-2.15-16.14-22.91-19.13-32.5,12.77,2.5,23.64,18.75,19.13,32.5Z"/><path class="cls-20" d="M131,193.79c2.73-27.5,3.64-53.6-14.57-62C130,144,110.46,193.88,112,193.88l19-.09Z"/><path class="cls-20" d="M150.44,135.38c-13.66,15.7-33.95,12.37-51.5,8.8,25.59,14,47.92,4.48,51.5-8.8Z"/><path class="cls-13" d="M143.92,92.34c-2.28-8.54.62-14.48,5.38-19a54.36,54.36,0,0,1,18.63-11.09c-1.59,9.12-12,28.16-24,30.11Z"/><path class="cls-21" d="M113.46,225.24l9-11.94-9-12h6l7.17,9.56h1.2v-9.56h4.77v9.56h1.2l7.17-9.56h6l-9,12,9,11.94h-6l-7.17-9.55h-1.2v9.55H127.8v-9.55h-1.2l-7.17,9.55Zm52.16,0h-4.38v-1.87a11.82,11.82,0,0,1-6.57,2.27q-6.57,0-6.57-6.57V207.72h4.38v11.35a2,2,0,0,0,2.19,2.19,8.51,8.51,0,0,0,6.57-4.18v-9.36h4.38v17.52Zm14.42-11h-7.65v4.38H180q1.11,0,1.11,1.2,0,1-1.11,1H168v4.38h12q5.49,0,5.49-5.37a4.82,4.82,0,0,0-1.51-3.43,4.38,4.38,0,0,0,1.51-3.18q0-5.53-5.49-5.54H168v4.38h12q1.11,0,1.11,1.2,0,1-1.11,1Zm25.4,11h-4.38v-6.57H192.3v6.57h-4.38V207.72h4.38v6.57h8.76v-6.57h4.38v17.52Zm19.91,0H221v-1.87a11.82,11.82,0,0,1-6.57,2.27q-6.57,0-6.57-6.57V207.72h4.38v11.35a2,2,0,0,0,2.19,2.19,8.51,8.51,0,0,0,6.57-4.18v-9.36h4.38v17.52Z"/><path class="cls-14" d="M48.84,123.06c-18.77,12.33-38-12.62-48.2-23.8,10.68,1.4,21.15,3.93,30.31,8.29,7.71,3.68,16.18,10.38,17.89,15.51Z"/><path class="cls-12" d="M64.64,150.24c-9.31,13.32-30.24.58-40.76-4.72a76.9,76.9,0,0,1,23.6-1.71c6.49.66,14.41,3.26,17.16,6.43Z"/><path class="cls-22" d="M192.65,131.36c2.58-8.47,17.89-16.3,29.11-18.09a47.43,47.43,0,0,1-10.36,13.89c-4.17,3.65-10.5,6.18-18.75,4.2Z"/><path class="cls-23" d="M173.33,149.85c9.55,10.77,26.4-2,35-7.51a67.78,67.78,0,0,0-20.74.49c-5.58,1.12-12.2,4-14.24,7Z"/><path class="cls-24" d="M94,30.93c3.74-5.49.13-21.66-8-29.55-2.56,6-6.91,23.71,8,29.55Z"/></g></g></svg>